<?xml version="1.0" standalone="no"?>
<!DOCTYPE svg PUBLIC "-//W3C//DTD SVG 20010904//EN"
 "http://www.w3.org/TR/2001/REC-SVG-20010904/DTD/svg10.dtd">
<svg version="1.0" xmlns="http://www.w3.org/2000/svg"
 width="260.000000pt" height="260.000000pt" viewBox="0 0 260.000000 260.000000"
 preserveAspectRatio="xMidYMid meet">
<metadata>
Created by potrace 1.11, written by Peter Selinger 2001-2013
</metadata>
<g transform="translate(0.000000,260.000000) scale(0.100000,-0.100000)"
fill="#000000" stroke="none">
<path d="M387 2073 c-2 -1 -12 -4 -23 -6 -100 -18 -207 -84 -266 -162 -21 -27
-48 -75 -61 -105 -21 -53 -22 -67 -25 -469 -3 -438 0 -474 43 -564 27 -56 103
-147 123 -147 7 0 12 -4 12 -8 0 -12 84 -52 143 -68 43 -11 220 -14 967 -14
556 1 932 5 958 10 52 12 122 42 122 52 0 5 6 8 14 8 24 0 121 106 149 163 46
94 48 126 45 568 -3 402 -4 416 -25 469 -13 30 -40 78 -61 105 -43 57 -143
129 -205 146 -23 7 -49 14 -57 17 -16 5 -1848 10 -1853 5z m1860 -132 c95 -26
188 -119 214 -214 7 -27 11 -177 11 -432 0 -373 -1 -393 -22 -446 -27 -75
-101 -150 -172 -178 -52 -19 -74 -20 -980 -20 -915 -1 -927 0 -976 20 -46 19
-142 96 -142 114 0 4 -9 19 -20 35 -11 15 -17 30 -14 33 3 3 0 15 -6 27 -16
30 -16 809 0 839 6 12 8 21 5 21 -3 0 4 18 15 40 26 50 87 120 106 120 8 0 14
4 14 9 0 9 88 38 130 43 14 2 423 2 910 2 619 -1 897 -5 927 -13z"/>
<path d="M681 1754 c-74 -15 -124 -37 -174 -76 -100 -76 -161 -170 -184 -282
-12 -60 -4 -226 11 -226 5 0 7 -2 4 -6 -3 -3 8 -33 24 -67 37 -76 133 -172
208 -209 249 -122 547 -1 643 260 21 58 28 201 13 266 -4 16 -8 34 -9 40 -1 6
-4 13 -7 16 -3 3 -15 25 -28 50 -12 25 -33 57 -45 71 -53 59 -65 55 161 53
114 -1 208 -2 208 -3 1 0 -15 -18 -34 -38 -34 -37 -87 -136 -98 -184 -11 -48
-13 -175 -3 -214 5 -22 11 -47 13 -56 7 -26 41 -85 76 -131 46 -60 121 -117
194 -147 52 -22 76 -25 171 -26 113 0 115 1 224 54 48 23 144 118 176 173 38
68 57 142 57 228 0 96 -5 120 -46 205 -55 115 -159 205 -282 241 -53 16 -115
18 -638 19 -400 0 -596 -3 -635 -11z m167 -118 c23 -4 42 -10 42 -13 0 -2 -12
-25 -26 -49 -15 -25 -25 -46 -23 -48 13 -11 90 -56 96 -56 5 0 19 20 32 45 13
25 29 44 35 42 34 -11 128 -179 107 -191 -3 -2 -30 -3 -59 -2 l-52 1 0 -61 0
-61 56 2 56 1 -7 -35 c-4 -20 -11 -42 -17 -48 -6 -7 -7 -13 -3 -13 4 0 -8 -19
-27 -42 -58 -75 -54 -74 -88 -19 l-31 50 -50 -30 c-27 -17 -49 -32 -49 -34 0
-9 45 -81 54 -87 5 -3 -6 -11 -25 -16 -42 -12 -186 -9 -199 4 -7 7 0 26 18 54
l29 45 -51 32 -51 32 -30 -50 -31 -49 -26 27 c-30 32 -81 113 -72 113 4 0 2 6
-3 13 -5 6 -9 21 -9 32 1 16 8 19 54 19 l52 -1 0 61 0 61 -55 -1 c-53 -1 -55
0 -51 22 9 51 86 174 108 174 3 0 18 -20 32 -45 15 -25 28 -45 30 -45 12 0 96
53 96 61 0 5 -12 28 -26 50 -14 23 -24 43 -22 45 8 7 84 20 113 19 17 -1 49
-5 73 -9z m1050 0 c23 -4 42 -10 42 -12 0 -2 -11 -22 -25 -44 -14 -22 -25 -44
-25 -49 0 -8 84 -61 96 -61 2 0 15 20 30 45 14 25 29 45 33 45 17 0 97 -123
93 -142 -1 -5 1 -8 5 -8 5 0 9 -11 9 -24 2 -22 -1 -24 -51 -22 l-53 1 -4 -48
c-4 -65 1 -73 45 -74 69 -2 68 -1 61 -30 -10 -42 -53 -118 -84 -148 l-27 -26
-24 46 c-13 25 -30 45 -37 45 -15 0 -92 -47 -92 -57 0 -3 11 -26 25 -50 24
-40 25 -44 8 -51 -28 -11 -191 -8 -204 5 -8 8 -4 22 15 52 14 22 26 43 26 45
0 7 -85 56 -97 56 -5 0 -20 -19 -33 -42 -13 -24 -25 -45 -26 -47 -7 -8 -65 66
-90 115 -37 73 -31 89 33 88 l51 -1 -2 60 -1 61 -57 -1 c-55 0 -67 5 -51 21 4
3 8 12 9 19 8 44 82 157 103 157 4 0 18 -19 31 -42 13 -24 24 -44 26 -46 2 -3
67 29 93 46 11 8 8 18 -14 56 -15 26 -26 49 -24 51 19 18 114 24 187 11z"/>
</g>
</svg>
